<?xml version="1.0" encoding="utf-8"?>
<!-- Generator: Adobe Illustrator 18.1.1, SVG Export Plug-In . SVG Version: 6.00 Build 0)  -->
<!DOCTYPE svg PUBLIC "-//W3C//DTD SVG 1.1//EN" "http://www.w3.org/Graphics/SVG/1.1/DTD/svg11.dtd">
<svg version="1.1" id="Layer_1" xmlns="http://www.w3.org/2000/svg" xmlns:xlink="http://www.w3.org/1999/xlink" x="0px" y="0px"
	 viewBox="-199 201 591 100" enable-background="new -199 201 591 100" xml:space="preserve">
<circle cx="-149" cy="251" r="50"/>
<path fill="#F9F9F9" d="M-153.7,214.8c1.6-0.1,3.3-0.4,4.9-0.1c2.4,0.4,4.5,1.8,6.2,3.7c1.6,1.7,2.6,4,3.2,6.3
	c1.5,5.1,2.9,10.3,4.3,15.4c0.2,1,0.7,1.9,1.1,2.8c0.1,0.3-0.1,0.6-0.1,0.9c0.1,0.5,0.2,0.9,0.4,1.4c1.7,0.5,3.4,0.8,5.1,1.3
	c0.4,0.1,0.9,0.4,1.1,0.9c0.1,0.3,0.1,0.7,0.1,1.1c0,0.6,0.1,1.2,0,1.8c0,0.4-0.4,0.5-0.6,0.6c-1.2,0.5-2.6,0.5-3.9,0.9
	c0,0.3,0.1,0.5,0.2,0.8c2.4,8.5,4.6,17,6.9,25.5c0.2,0.7,0.6,1.4,0.7,2.2c0.1,0.3-0.2,0.5-0.3,0.7c-0.4,0.3-1,0.5-1.4,0.1
	c-0.3-0.7-0.3-1.5-0.5-2.2c-0.8-3.1-1.7-6.2-2.5-9.3c-0.3-1.2-0.6-2.4-1-3.5c-0.5-0.1-1.1,0.1-1.6,0.2c-2.9,0.6-5.8,1.2-8.8,1.8
	c-0.7,0.2-1.4,0.2-2.2,0.4c-0.1,0.6-0.2,1.2-0.3,1.8c-0.1,0.7,0,1.5-0.3,2.2c-0.5,0.4-1.3,0.3-1.6-0.4c0-0.6,0.2-1.2,0.4-1.8
	c0.1-0.5,0.2-1,0.2-1.5c-1.7,0.2-3.3,0.6-4.9,0.9c-2.3,0.4-4.6,0.9-6.9,1.3c0,0.2,0,0.4,0,0.5c1.1,4.3,2.2,8.7,3.3,13
	c0.2,0.7,0.6,1.2,0.7,1.9c0.1,0.3-0.2,0.6-0.4,0.7c-0.4,0.2-0.9,0.4-1.4,0.1c-0.4-0.7-0.3-1.5-0.5-2.2c-1.4-5.3-2.7-10.6-4-15.9
	c-0.5-1.8-0.9-3.7-1.4-5.5c-2.1,0.3-4.2,0.7-6.2,1c-0.6,0.1-1.3,0.1-2,0.3c-0.5,3.5-0.9,7-1.3,10.5c-0.1,0.7,0.1,1.5-0.1,2.2
	c-0.5,0.6-1.4,0.4-1.7-0.3c-0.1-0.8,0.3-1.5,0.4-2.3c0.9-7.5,1.8-15,2.8-22.5c0.4-3.2,0.9-6.5,1.3-9.7c0-0.4-0.3-0.7-0.3-1.1
	c0-0.3,0.3-0.4,0.5-0.6c0.1-0.3,0-0.7,0.1-1c0.2-0.6,0.4-1.3,0.2-2c-0.8-3.2-1.6-6.5-2.3-9.7c-0.3-1.5-0.7-3.1-0.6-4.7
	c0.1-3.2,1.9-6.3,4.5-7.6c1.4-0.7,3-0.8,4.4-1C-157.5,215.1-155.6,214.9-153.7,214.8 M-150.7,229.9c-3.1,0-6.2,0.6-9.2,1.4
	c-1.3,0.4-2.7,0.8-4,1.2c-0.4,0.1-0.8,0.2-1.1,0.4c0.9,4,2,8,2.9,12c0.1,0.4,0.4,0.8,0.6,1.2c0.1,0.2,0.4,0.1,0.6,0.1
	c4.9-0.7,9.9-1.4,14.8-2.1c1.6-0.2,3.2-0.5,4.8-0.3c0.6,0,1.1,0.2,1.7,0.2c0.3-1.5,0.5-3.1,0.7-4.6c0.1-0.4-0.3-0.8-0.2-1.2
	c0-0.4,0.5-0.3,0.5-0.6c0-0.5,0-0.9,0.2-1.4c0.1-0.5,0.4-1,0.2-1.5c-0.4-1.5-0.9-3.1-1.3-4.6c-0.2,0-0.4-0.1-0.6,0
	c-1.4,0-2.8,0-4.2,0C-146.4,229.8-148.6,229.7-150.7,229.9 M-137.3,239c-0.1,0.4-0.2,0.8,0,1.1c0.3,0.5,0.6,1,1,1.5
	c-0.1-0.7-0.3-1.4-0.5-2C-137,239.3-137.1,239.1-137.3,239 M-137.7,241c-0.2,1.1-0.4,2.1-0.5,3.2c0.3,0.2,0.6,0.2,0.9,0.3
	c0.6,0.1,1.2,0.3,1.8,0.3c-0.1-0.4-0.1-0.8-0.4-1.1c-0.5-0.4-0.8-0.9-1.1-1.4C-137.2,242-137.4,241.4-137.7,241 M-163.8,245.1
	c-0.1-0.7-0.3-1.5-0.5-2.2C-164.7,243.6-164.3,244.5-163.8,245.1 M-164.7,245.3c-0.1,0.5-0.2,0.9-0.2,1.4c0.3,0,0.5-0.1,0.7-0.2
	C-164.2,246.1-164.4,245.7-164.7,245.3 M-165.4,250.5c-0.2,1.6-0.5,3.2-0.7,4.8c-0.1,0.4-0.1,0.9-0.1,1.3c1.7-0.2,3.4-0.5,5.1-0.8
	c0-0.6-0.2-1.2-0.4-1.8c-0.2-0.8-0.4-1.6-0.6-2.4C-163.2,251.2-164.4,251.2-165.4,250.5 M-139.1,253c-0.2,0-0.5,0-0.5,0.3
	c-0.5,3-1,6.1-1.5,9.1c-0.3,1.6-0.6,3.2-0.8,4.8c3.8-0.7,7.7-1.5,11.5-2.2c0.1,0,0.3-0.1,0.4-0.2c0-0.2,0-0.4-0.1-0.6
	c-1.1-3.9-2.1-7.9-3.2-11.8c0-0.1-0.1-0.3-0.2-0.4C-135.4,252.3-137.2,252.7-139.1,253 M-160.2,252.3c0.2,0.9,0.5,1.9,0.7,2.8
	c0.1,0.2,0.1,0.5,0.3,0.4c2.1-0.3,4.1-0.7,6.2-1c0.2,0,0.4,0,0.5-0.2c-1.9-0.4-3.7-1-5.6-1.5C-158.9,252.6-159.5,252.3-160.2,252.3
	 M-143.4,254c-3.5,0.6-6.9,1.2-10.4,1.7c-1.8,0.3-3.6,0.6-5.3,0.9c0.1,0.7,0.3,1.3,0.5,1.9c0.3,1.3,0.6,2.5,1,3.8
	c2.1-0.3,4.1-0.7,6.2-1.1c3-0.6,6-1.1,9-1.7c0.4,0,0.5-0.5,0.6-0.8c0.3-1.7,0.6-3.3,0.8-5C-142,253.7-142.7,253.9-143.4,254
	 M-165.1,257.5c-0.4,0.1-0.9,0.1-1.3,0.2c-0.1,0.5-0.2,1-0.2,1.6c-0.2,1.5-0.5,3-0.6,4.5c0.6,0,1.2-0.1,1.8-0.2c2-0.3,4-0.6,6-1
	c-0.1-0.7-0.3-1.3-0.5-1.9c-0.3-1.3-0.6-2.6-1-3.8C-162.3,257-163.7,257.3-165.1,257.5 M-143.5,260.7c-4.1,0.8-8.1,1.5-12.2,2.3
	c-0.6,0.1-1.2,0.2-1.9,0.4c0.3,1.5,0.8,3.1,1.1,4.6c0.2,0.6,0.3,1.3,0.5,1.9c0.5,0,1-0.2,1.5-0.3c2.3-0.4,4.5-0.8,6.8-1.3
	c1.3-0.3,2.7-0.5,4-0.8c0.2-0.7,0.3-1.5,0.4-2.3c0.3-1.6,0.6-3.2,0.8-4.7C-142.7,260.6-143.1,260.6-143.5,260.7z"/>
<g>
	<path d="M-80.2,261.2c0.3,2.3,1,4,1.9,5.1c1.7,2,4.7,3.1,8.9,3.1c2.5,0,4.5-0.3,6.1-0.8c3-1,4.5-3,4.5-5.8c0-1.6-0.7-2.9-2.2-3.8
		c-1.5-0.9-3.8-1.7-6.9-2.3l-5.4-1.2c-5.3-1.2-8.9-2.4-10.9-3.8c-3.4-2.3-5-5.9-5-10.8c0-4.5,1.6-8.2,4.9-11.1
		c3.3-3,8.1-4.4,14.5-4.4c5.3,0,9.8,1.4,13.6,4.2c3.8,2.8,5.7,6.8,5.9,12.1h-10c-0.2-3-1.5-5.1-4-6.4c-1.7-0.8-3.7-1.3-6.2-1.3
		c-2.7,0-4.9,0.5-6.6,1.6c-1.6,1.1-2.5,2.6-2.5,4.5c0,1.8,0.8,3.1,2.4,4c1,0.6,3.2,1.3,6.6,2.1l8.7,2.1c3.8,0.9,6.7,2.1,8.6,3.6
		c3,2.3,4.5,5.7,4.5,10.2c0,4.6-1.8,8.3-5.3,11.3c-3.5,3-8.5,4.5-14.9,4.5c-6.6,0-11.7-1.5-15.5-4.4s-5.6-7-5.6-12.2H-80.2z"/>
	<path d="M-5.6,235.6h-26.4v10.6h24.2v8.7h-24.2v12.8h27.6v9h-37.8v-49.8h36.5V235.6z"/>
	<path d="M17.2,226.8H29l17.6,49.8H35.3L32,266.4H13.7l-3.4,10.2H-0.6L17.2,226.8z M16.5,257.8h12.8L23,238.2L16.5,257.8z"/>
	<path d="M83.2,226.8v8.8H68.3v41H57.8v-41h-15v-8.8H83.2z"/>
	<path d="M134.1,226.8h11.8l-16.7,31.1v18.7h-10.4v-18.7l-17.2-31.1h12.3l10.3,21.7L134.1,226.8z"/>
	<path d="M189.3,272.2c-3.8,3.9-9.2,5.8-16.3,5.8s-12.6-1.9-16.3-5.8c-5-4.8-7.6-11.6-7.6-20.5c0-9.1,2.5-16,7.6-20.5
		c3.8-3.9,9.2-5.8,16.3-5.8s12.6,1.9,16.3,5.8c5,4.6,7.5,11.4,7.5,20.5C196.9,260.6,194.4,267.4,189.3,272.2z M182.8,264.6
		c2.4-3,3.6-7.4,3.6-13c0-5.6-1.2-9.9-3.6-13c-2.4-3.1-5.7-4.6-9.8-4.6s-7.4,1.5-9.9,4.6c-2.5,3-3.7,7.4-3.7,13s1.2,9.9,3.7,13
		c2.5,3,5.7,4.6,9.9,4.6S180.4,267.6,182.8,264.6z"/>
	<path d="M203.3,242.4c2.3-0.7,4-1.9,4.8-3.5c0.5-1,0.7-2,0.6-3h-5.6v-8.9h9.9v7.1c0,3.4-0.9,6.1-2.6,8c-1.7,2-4.1,3.2-7.2,3.8
		V242.4z"/>
	<path d="M229.9,261.2c0.3,2.3,1,4,1.9,5.1c1.7,2,4.7,3.1,8.9,3.1c2.5,0,4.5-0.3,6.1-0.8c3-1,4.5-3,4.5-5.8c0-1.6-0.7-2.9-2.2-3.8
		c-1.5-0.9-3.8-1.7-6.9-2.3l-5.4-1.2c-5.3-1.2-8.9-2.4-10.9-3.8c-3.4-2.3-5-5.9-5-10.8c0-4.5,1.6-8.2,4.9-11.1
		c3.3-3,8.1-4.4,14.5-4.4c5.3,0,9.8,1.4,13.6,4.2c3.8,2.8,5.7,6.8,5.9,12.1h-10c-0.2-3-1.5-5.1-4-6.4c-1.7-0.8-3.7-1.3-6.2-1.3
		c-2.7,0-4.9,0.5-6.6,1.6c-1.6,1.1-2.5,2.6-2.5,4.5c0,1.8,0.8,3.1,2.4,4c1,0.6,3.2,1.3,6.6,2.1l8.7,2.1c3.8,0.9,6.7,2.1,8.6,3.6
		c3,2.3,4.5,5.7,4.5,10.2c0,4.6-1.8,8.3-5.3,11.3c-3.5,3-8.5,4.5-14.9,4.5c-6.6,0-11.7-1.5-15.5-4.4s-5.6-7-5.6-12.2H229.9z"/>
	<path d="M304.6,235.6h-26.4v10.6h24.2v8.7h-24.2v12.8h27.6v9H268v-49.8h36.5V235.6z"/>
	<path d="M313.1,226.8h10.4v40.9h24.9v9h-35.3V226.8z"/>
	<path d="M354.5,226.8H390v8.8h-25.2v11.5h22.1v8.7h-22.1v20.9h-10.3V226.8z"/>
</g>
</svg>
